<svg width="3500" height="3500" viewBox="0 0 3500 3500" fill="none" xmlns="http://www.w3.org/2000/svg">
<rect width="3500" height="3500" rx="740" fill="#F8CB46"/>
<path d="M666.964 1551C715.913 1551 759.616 1563.24 798.076 1587.71C836.884 1611.83 867.302 1646.09 889.329 1690.48C910.656 1733.13 921.32 1783.3 921.32 1840.98C921.32 1896.91 910.656 1946.9 889.329 1990.95C868.001 2034.99 837.933 2069.43 799.124 2094.25C759.966 2119.42 715.913 2132 666.964 2132C631.302 2132 597.738 2124.66 566.271 2109.98C534.804 2095.29 507.883 2074.67 485.507 2048.1V2118.67H303L303 1368H485.507V1634.38C507.883 1607.81 534.804 1587.36 566.271 1573.03C597.738 1558.34 631.302 1551 666.964 1551ZM612.422 1980.46C638.295 1980.46 661.37 1974.52 681.649 1962.63C701.927 1950.74 717.836 1934.14 729.373 1912.82C740.911 1891.84 746.68 1867.89 746.68 1840.98C746.68 1814.76 740.911 1790.99 729.373 1769.66C717.836 1748.34 701.927 1731.73 681.649 1719.85C661.37 1707.96 638.295 1702.02 612.422 1702.02C587.948 1702.02 566.096 1707.96 546.867 1719.85C527.637 1731.39 512.603 1747.64 501.764 1768.61C490.926 1789.94 485.507 1814.06 485.507 1840.98C485.507 1867.89 490.926 1892.02 501.764 1913.34C512.603 1934.31 527.637 1950.74 546.867 1962.63C566.096 1974.52 587.948 1980.46 612.422 1980.46Z" fill="#1C1C1C"/>
<path d="M946.305 2118.67V1368H1128.81V2118.67H946.305Z" fill="#1C1C1C"/>
<path d="M1180.54 2118.67V1563.44H1362V2118.67H1180.54Z" fill="#1C1C1C"/>
<path d="M1756.19 1551C1795 1551 1829.97 1560.09 1861.08 1578.27C1892.2 1596.1 1916.67 1621.27 1934.5 1653.78C1951.64 1686.64 1960.2 1723.87 1960.2 1765.47V2118.67H1786.09V1806.37C1786.09 1786.09 1782.07 1768.09 1774.02 1752.36C1766.33 1736.28 1755.32 1723.87 1740.98 1715.13C1727 1706.39 1710.57 1702.02 1691.69 1702.02C1673.86 1702.02 1657.42 1706.39 1642.39 1715.13C1627.35 1723.52 1615.64 1735.06 1607.25 1749.74C1598.51 1763.72 1594.14 1780.15 1594.14 1799.03L1593.09 2118.67H1411.63V1563.59H1593.09V1627.04C1610.22 1603.27 1633.12 1584.74 1661.79 1571.45C1690.46 1557.82 1721.93 1551 1756.19 1551Z" fill="#1C1C1C"/>
<path d="M2361.21 1806.37L2567.1 2118.67H2361L2240.59 1922.25L2185 1986.75V2118.67H2002.49V1368H2185V1782.77L2360.46 1563.3L2566.42 1563.44L2361.21 1806.37Z" fill="#1C1C1C"/>
<path d="M1180.44 1368.06H1362.5V1510.14H1180.44V1368.06Z" fill="#1C1C1C"/>
<path d="M2594.84 2118.71V1563.44H2776.9V2118.71H2594.84Z" fill="#0C831F"/>
<path d="M3161.43 1960.44L3197.61 2077.37C3181.18 2093.11 3160.38 2105.86 3135.2 2115.65C3110.38 2125.44 3086.08 2130.34 3062.31 2130.34C3028.04 2130.34 2997.45 2122.82 2970.53 2107.79C2943.61 2092.41 2922.63 2071.08 2907.59 2043.81C2892.56 2017.25 2885.04 1986.66 2885.04 1952.05V1707.06H2812.15V1563.44H2885.04V1368.06H3059.16V1563.44H3174.01V1707.06H3059.16V1918.49C3059.16 1936.32 3063.88 1950.83 3073.32 1962.01C3082.76 1973.2 3094.82 1978.79 3109.51 1978.79C3119.99 1978.79 3129.78 1977.22 3138.87 1974.07C3147.96 1970.93 3155.48 1966.38 3161.43 1960.44Z" fill="#0C831F"/>
<path d="M2594.84 1368.06H2776.9V1510.14H2594.84V1368.06Z" fill="#0C831F"/>
</svg>
